<svg width="24" height="25" viewBox="0 0 24 25" fill="none" xmlns="http://www.w3.org/2000/svg">
<path d="M17.8644 8.5267H15.8644V6.5267C15.8644 4.3167 14.0744 2.5267 11.8644 2.5267H5.86444C3.65444 2.5267 1.86444 4.3167 1.86444 6.5267V12.5267C1.86444 14.7367 3.65444 16.5267 5.86444 16.5267H7.86444V18.5267C7.86444 20.7367 9.65444 22.5267 11.8644 22.5267H17.8644C20.0744 22.5267 21.8644 20.7367 21.8644 18.5267V12.5267C21.8644 10.3167 20.0744 8.5267 17.8644 8.5267ZM5.86444 14.5267C4.76444 14.5267 3.86444 13.6267 3.86444 12.5267V6.5267C3.86444 5.4267 4.76444 4.5267 5.86444 4.5267H11.8644C12.9644 4.5267 13.8644 5.4267 13.8644 6.5267V8.5267H11.8644C9.65444 8.5267 7.86444 10.3167 7.86444 12.5267V14.5267H5.86444ZM13.8644 10.5267V12.5267C13.8644 13.6267 12.9644 14.5267 11.8644 14.5267H9.86444V12.5267C9.86444 11.4267 10.7644 10.5267 11.8644 10.5267H13.8644ZM19.8644 18.5267C19.8644 19.6267 18.9644 20.5267 17.8644 20.5267H11.8644C10.7644 20.5267 9.86444 19.6267 9.86444 18.5267V16.5267H11.8644C14.0744 16.5267 15.8644 14.7367 15.8644 12.5267V10.5267H17.8644C18.9644 10.5267 19.8644 11.4267 19.8644 12.5267V18.5267Z" fill="black"/>
</svg>
