<svg width="24" height="25" viewBox="0 0 24 25" fill="none" xmlns="http://www.w3.org/2000/svg">
<path d="M3.42859 17.8572C3.42859 19.3586 4.62716 20.525 6.12502 21.2743C7.6643 22.0436 9.74287 22.5 12 22.5V21.0715C9.91716 21.0715 8.06645 20.6479 6.76359 19.9965C5.41787 19.3229 4.85716 18.5257 4.85716 17.8572H3.42859ZM12 22.5C14.2572 22.5 16.335 22.0443 17.875 21.2743C19.3729 20.525 20.5714 19.3586 20.5714 17.8572H19.1429C19.1429 18.5257 18.5822 19.3229 17.2364 19.9965C15.9329 20.6479 14.0829 21.0715 12 21.0715V22.5ZM4.85716 17.8572V6.78574H3.42859V17.8572H4.85716ZM20.5714 17.8572V6.78574H19.1429V17.8572H20.5714ZM3.42859 12.8572C3.42859 14.3586 4.62716 15.525 6.12502 16.2743C7.6643 17.0436 9.74287 17.5 12 17.5V16.0715C9.91716 16.0715 8.06645 15.6479 6.76359 14.9965C5.41787 14.3229 4.85716 13.5257 4.85716 12.8572H3.42859ZM12 17.5C14.2572 17.5 16.335 17.0443 17.875 16.2743C19.3729 15.525 20.5714 14.3586 20.5714 12.8572H19.1429C19.1429 13.5257 18.5822 14.3229 17.2364 14.9965C15.9329 15.6479 14.0829 16.0715 12 16.0715V17.5ZM20.5714 7.14289C20.5714 5.64146 19.3729 4.47503 17.875 3.72574C16.3357 2.95574 14.2572 2.50003 12 2.50003V3.9286C14.0829 3.9286 15.9329 4.35217 17.2364 5.0036C18.5822 5.67646 19.1429 6.47432 19.1429 7.14289H20.5714ZM12 2.50003C9.74287 2.50003 7.66502 2.95574 6.12502 3.72574C4.62716 4.47503 3.42859 5.64146 3.42859 7.14289H4.85716C4.85716 6.47432 5.41787 5.67646 6.76359 5.0036C8.06645 4.35217 9.91716 3.9286 12 3.9286V2.50003ZM3.42859 7.14289C3.42859 8.64432 4.62716 9.81075 6.12502 10.56C7.6643 11.3293 9.74287 11.7857 12 11.7857V10.3572C9.91716 10.3572 8.06645 9.9336 6.76359 9.28217C5.41787 8.60932 4.85716 7.81146 4.85716 7.14289H3.42859ZM12 11.7857C14.2572 11.7857 16.335 11.33 17.875 10.56C19.3729 9.81075 20.5714 8.6436 20.5714 7.14289H19.1429C19.1429 7.81146 18.5822 8.60932 17.2364 9.28217C15.9329 9.9336 14.0829 10.3572 12 10.3572V11.7857Z" fill="black"/>
</svg>
