<svg width="23" height="23" viewBox="0 0 23 23" fill="none" xmlns="http://www.w3.org/2000/svg">
<path d="M10.4148 2.85156H4.41476C2.42653 2.85156 0.814758 4.46333 0.814758 6.45156V18.4517C0.814758 20.4399 2.42653 22.0517 4.41476 22.0517H16.4148C18.403 22.0517 20.0148 20.4399 20.0148 18.4517L20.0148 12.4516M6.81476 16.0516L11.1807 15.1718C11.4125 15.1251 11.6253 15.011 11.7925 14.8438L21.5662 5.06474C22.0347 4.59588 22.0344 3.83589 21.5654 3.36743L19.495 1.29936C19.0262 0.831089 18.2666 0.831408 17.7982 1.30007L8.02352 11.0801C7.85671 11.247 7.7428 11.4594 7.69606 11.6907L6.81476 16.0516Z" stroke="#404853" stroke-width="1.5" stroke-linecap="round" stroke-linejoin="round"/>
</svg>
