<svg width="22" height="33" viewBox="0 0 22 33" fill="none" xmlns="http://www.w3.org/2000/svg">
<path fill="var(--ci-primary-color, currentColor)" d="M10.9151 9.89914C12.0858 9.88917 13.2479 10.0988 14.3413 10.5172C13.5372 6.47812 12.2969 4.00777 10.9084 4.00961H10.9069C9.51875 4.0123 8.2855 6.48517 7.49158 10.5252C8.5836 10.1045 9.74476 9.89207 10.915 9.89914H10.9151Z" class="ci-primary"/>
<path fill="var(--ci-primary-color, currentColor)" d="M11.0831 28.9049L9.32935 28.9073C9.77177 31.7191 10.3973 32.2451 11.0887 32.244C11.7802 32.243 12.4013 31.7151 12.8378 28.9027L11.0831 28.9049Z" class="ci-primary"/>
<path fill="var(--ci-primary-color, currentColor)" d="M15.2736 21.22C15.2017 19.1573 15.0594 16.9895 14.8261 14.7282C14.7066 13.5693 14.57 12.4412 14.4162 11.3442C12.1664 10.4722 9.67308 10.4751 7.42531 11.3524C7.27537 12.46 7.14179 13.5986 7.02457 14.7682C6.79749 17.0466 6.66057 19.2315 6.59311 21.3115C4.65119 22.7522 3.31038 25.4849 3.31489 29.0698L6.54202 29.0656C7.13244 29.0656 7.48392 28.9148 7.48392 28.3105L7.48192 28.2991L10.942 28.2948L14.5152 28.2903C14.5152 28.93 14.8529 29.0552 15.4458 29.0543L18.6851 29.0503C18.6801 25.3969 17.2795 22.6173 15.2736 21.22ZM10.9213 12.3982C11.1867 12.3979 11.4462 12.4765 11.6671 12.6241C11.8879 12.7717 12.0602 12.9818 12.1621 13.2276C12.264 13.4735 12.2909 13.7442 12.2395 14.0054C12.1881 14.2666 12.0606 14.5067 11.8731 14.6952C11.6857 14.8837 11.4468 15.0122 11.1866 15.0645C10.9263 15.1168 10.6565 15.0905 10.4112 14.9889C10.1659 14.8873 9.9561 14.715 9.80838 14.4938C9.66066 14.2726 9.58163 14.0124 9.58129 13.7462C9.58089 13.3892 9.72184 13.0466 9.97312 12.7939C10.2244 12.5411 10.5654 12.3988 10.9213 12.3982ZM10.9269 16.7839C11.1923 16.7836 11.4518 16.8622 11.6726 17.0099C11.8934 17.1575 12.0656 17.3674 12.1675 17.6133C12.2693 17.8591 12.2963 18.1298 12.2448 18.391C12.1934 18.6522 12.0659 18.8921 11.8785 19.0805C11.6911 19.2692 11.4522 19.3977 11.192 19.4499C10.9318 19.5022 10.662 19.4757 10.4167 19.3742C10.1714 19.2727 9.96169 19.1005 9.81401 18.8792C9.66632 18.658 9.5873 18.3979 9.58697 18.1317C9.58657 17.7747 9.72751 17.4321 9.97879 17.1794C10.2301 16.9266 10.5711 16.7844 10.9269 16.7839ZM10.936 23.8619C10.6706 23.8622 10.4111 23.7836 10.1903 23.6359C9.96949 23.4883 9.79726 23.2784 9.69542 23.0325C9.59357 22.7867 9.56667 22.516 9.61811 22.2548C9.66956 21.9936 9.79704 21.7537 9.98444 21.5651C10.1718 21.3766 10.4107 21.2481 10.6709 21.1959C10.9311 21.1436 11.2009 21.1699 11.4462 21.2716C11.6915 21.3731 11.9012 21.5453 12.0489 21.7666C12.1966 21.9878 12.2756 22.2479 12.2759 22.5141C12.2762 22.6909 12.2417 22.8659 12.1744 23.0294C12.1072 23.1928 12.0086 23.3414 11.8841 23.4665C11.7597 23.5917 11.6119 23.691 11.4492 23.7589C11.2864 23.8267 11.112 23.8619 10.9358 23.862L10.936 23.8619Z" class="ci-primary"/>
<path fill="var(--ci-primary-color, currentColor)" d="M10.91 12.8642C10.7111 12.8673 10.5214 12.948 10.3819 13.0889C10.2425 13.2297 10.1644 13.4194 10.1647 13.6169C10.1649 13.8145 10.2435 14.0039 10.3833 14.1445C10.5231 14.2849 10.713 14.3652 10.912 14.3678C11.1128 14.3675 11.3053 14.2881 11.4472 14.1469C11.589 14.0057 11.6685 13.8144 11.6683 13.615C11.668 13.4156 11.588 13.2245 11.4458 13.0837C11.3036 12.9429 11.1109 12.8639 10.91 12.8642Z" class="ci-primary"/>
<path fill="var(--ci-primary-color, currentColor)" d="M10.9114 17.2081H10.9099C10.711 17.2112 10.5213 17.2919 10.3819 17.4328C10.2424 17.5737 10.1644 17.7633 10.1647 17.9607C10.1649 18.1583 10.2434 18.3478 10.3833 18.4882C10.5231 18.6288 10.713 18.709 10.9119 18.7116C11.1127 18.7114 11.3052 18.632 11.4471 18.4907C11.5889 18.3497 11.6685 18.1583 11.6683 17.9589C11.6681 17.7595 11.5881 17.5684 11.4459 17.4276C11.3038 17.2867 11.1111 17.2078 10.9102 17.2079L10.9114 17.2081Z" class="ci-primary"/>
<path fill="var(--ci-primary-color, currentColor)" d="M10.9108 21.7188H10.91C10.7111 21.7218 10.5214 21.8026 10.3819 21.9435C10.2425 22.0844 10.1644 22.2741 10.1647 22.4715C10.1649 22.669 10.2435 22.8586 10.3833 22.999C10.5231 23.1396 10.713 23.2198 10.9119 23.2224C11.1128 23.2221 11.3053 23.1428 11.4471 23.0016C11.589 22.8603 11.6685 22.669 11.6683 22.4697C11.668 22.2704 11.588 22.0792 11.4459 21.9383C11.3037 21.7976 11.111 21.7186 10.9102 21.7188H10.9108Z" class="ci-primary"/>
<path fill="var(--ci-primary-color, currentColor)" d="M15.2796 10.5347C14.6167 7.2052 13.3399 3.23492 11.0208 3.23492H10.9978C9.14473 3.25653 7.72435 5.71576 6.7757 10.5446L6.77369 10.555L6.50854 12.065C6.40123 12.748 6.30581 13.457 6.22396 14.1785C6.20767 14.322 6.19187 14.4666 6.17658 14.6123C6.07514 15.5803 5.99529 16.5968 5.93837 17.6405C5.65129 17.4188 5.37849 17.1793 5.12164 16.9232C3.90441 15.7066 3.08789 14.1468 2.78153 12.4527C2.47518 10.7587 2.69362 9.01137 3.40759 7.44507C4.12154 5.87876 5.2969 4.5683 6.77609 3.68934C8.25527 2.81039 9.96761 2.40497 11.6836 2.52739C13.3995 2.64982 15.0371 3.29426 16.3767 4.37432C17.7164 5.45441 18.694 6.91847 19.1786 8.5703C19.6634 10.2221 19.6319 11.9828 19.0886 13.6162C18.545 15.2496 17.5157 16.6777 16.1383 17.7092C16.0787 16.6387 15.9945 15.5949 15.8872 14.6001C15.8715 14.4549 15.8553 14.3103 15.8388 14.1662C15.7551 13.4459 15.6587 12.7368 15.5496 12.0555L15.2796 10.5347Z" class="ci-primary"/>
<path fill="var(--ci-primary-color, currentColor)" d="M10.9809 0.000340451C8.5806 0.00680497 6.24988 0.807119 4.35249 2.2764C2.45509 3.74569 1.09773 5.8013 0.492186 8.12252C-0.113353 10.4437 0.0669905 12.9 1.00508 15.108C1.94317 17.316 3.58624 19.1517 5.67792 20.3284C5.70016 19.8761 5.72485 19.4289 5.75199 18.987C4.48687 18.17 3.42889 17.0706 2.66135 15.7753C1.79394 14.3067 1.33058 12.6349 1.31829 10.9295C1.30599 9.2242 1.74519 7.54593 2.59134 6.06494C3.43748 4.58394 4.66047 3.35291 6.1363 2.49666C7.61212 1.64042 9.28829 1.18944 10.9948 1.18944C12.7013 1.18944 14.3775 1.64042 15.8533 2.49666C17.329 3.35291 18.5521 4.58394 19.3983 6.06494C20.2444 7.54593 20.6836 9.2242 20.6712 10.9295C20.659 12.6349 20.1956 14.3067 19.3282 15.7753C18.5406 17.1046 17.4473 18.227 16.1389 19.0498C16.166 19.4896 16.1911 19.9337 16.2141 20.3822C18.3311 19.2232 20.0016 17.3926 20.9621 15.1796C21.9226 12.9664 22.1185 10.4967 21.5184 8.16007C20.9186 5.82344 19.5571 3.75296 17.649 2.27538C15.741 0.797792 13.3949 -0.00277627 10.9809 7.23401e-06V0.000340451Z" class="ci-primary"/>
</svg>
