<svg width="32" height="33" viewBox="0 0 32 33" fill="none" xmlns="http://www.w3.org/2000/svg">
<g clip-path="url(#clip0_1022_296)">
<path d="M20.5209 15.8333C19.4229 15.8333 18.5834 16.7 18.5834 17.8333C18.5834 18.9667 19.4229 19.8333 20.5209 19.8333C21.6188 19.8333 22.4584 18.9667 22.4584 17.8333C22.4584 16.7 21.6188 15.8333 20.5209 15.8333ZM11.4792 15.8333C10.3813 15.8333 9.54169 16.7 9.54169 17.8333C9.54169 18.9667 10.3813 19.8333 11.4792 19.8333C12.5771 19.8333 13.4167 18.9667 13.4167 17.8333C13.4167 16.7 12.5771 15.8333 11.4792 15.8333Z" fill="#2547E1"/>
<path d="M4.375 10.5C4.375 9.76667 4.95625 9.16667 5.66667 9.16667H10.8333L8.96042 4.3C8.70208 3.63333 9.025 2.83333 9.67083 2.56667C10.3167 2.3 11.0917 2.63333 11.35 3.3L13.6104 9.1H18.325L20.5854 3.3C20.8438 2.63333 21.6187 2.3 22.2646 2.56667C22.9104 2.83333 23.2333 3.63333 22.975 4.3L21.1667 9.16667H26.3333C27.0437 9.16667 27.625 9.76667 27.625 10.5V29.1667C27.625 29.9 27.0437 30.5 26.3333 30.5H5.66667C4.95625 30.5 4.375 29.9 4.375 29.1667V10.5ZM6.95833 11.8333V27.8333H25.0417V11.8333H6.95833ZM31.5 23.1667V16.5C31.5 15.7667 30.9187 15.1667 30.2083 15.1667C29.4979 15.1667 28.9167 15.7667 28.9167 16.5V23.1667C28.9167 23.9 29.4979 24.5 30.2083 24.5C30.9187 24.5 31.5 23.9 31.5 23.1667ZM1.79167 24.5C2.50208 24.5 3.08333 23.9 3.08333 23.1667V16.5C3.08333 15.7667 2.50208 15.1667 1.79167 15.1667C1.08125 15.1667 0.5 15.7667 0.5 16.5V23.1667C0.5 23.9 1.08125 24.5 1.79167 24.5Z" fill="#2547E1"/>
</g>
<defs>
<clipPath id="clip0_1022_296">
<rect width="31" height="32" fill="white" transform="translate(0.5 0.5)"/>
</clipPath>
</defs>
</svg>
