<svg width="18" height="17" viewBox="0 0 18 17" fill="none" xmlns="http://www.w3.org/2000/svg">
<path d="M17.0888 2.91332C17.0504 2.26059 16.764 1.6472 16.2883 1.1986C15.8126 0.750001 15.1835 0.500097 14.5296 0.5L2.41333 0.5C1.75977 0.538462 1.14567 0.82548 0.696952 1.30221C0.24823 1.77894 -0.00112695 2.40926 3.82909e-06 3.06396V14.9223C0.0242303 15.2349 0.133973 15.5349 0.317229 15.7894C0.500484 16.0438 0.750192 16.243 1.03904 16.3651C1.32789 16.4872 1.64475 16.5275 1.95496 16.4816C2.26518 16.4357 2.5568 16.3054 2.79792 16.1049L5.12792 14.1739H14.6803C15.3338 14.1354 15.9479 13.8484 16.3966 13.3717C16.8454 12.895 17.0947 12.2646 17.0936 11.6099V3.06396L17.0888 2.91332ZM15.8068 11.6099C15.8068 11.9499 15.6717 12.276 15.4313 12.5164C15.1909 12.7569 14.8648 12.8919 14.5248 12.8919H5.12792C4.82798 12.8922 4.53765 12.9977 4.30745 13.19L1.98226 15.1258C1.9205 15.1776 1.8453 15.2109 1.76539 15.2217C1.68548 15.2325 1.60413 15.2204 1.53081 15.1869C1.45748 15.1533 1.39518 15.0997 1.35114 15.0321C1.30709 14.9646 1.28311 14.8859 1.28198 14.8053V3.06396C1.28198 2.8956 1.31514 2.7289 1.37957 2.57336C1.44399 2.41783 1.53842 2.2765 1.65746 2.15746C1.77651 2.03842 1.91783 1.94399 2.07337 1.87956C2.22891 1.81514 2.39561 1.78198 2.56396 1.78198H14.5296C14.698 1.78198 14.8647 1.81514 15.0202 1.87956C15.1758 1.94399 15.3171 2.03842 15.4361 2.15746C15.5552 2.2765 15.6496 2.41783 15.714 2.57336C15.7784 2.7289 15.8116 2.8956 15.8116 3.06396L15.8068 11.6099Z" fill="#91959B"/>
<path d="M8.54606 8.40505H5.12799C4.95799 8.40505 4.79495 8.47258 4.67474 8.59279C4.55453 8.713 4.487 8.87604 4.487 9.04604C4.487 9.21604 4.55453 9.37908 4.67474 9.49929C4.79495 9.6195 4.95799 9.68703 5.12799 9.68703H8.54606C8.71606 9.68703 8.8791 9.6195 8.99931 9.49929C9.11952 9.37908 9.18705 9.21604 9.18705 9.04604C9.18705 8.87604 9.11952 8.713 8.99931 8.59279C8.8791 8.47258 8.71606 8.40505 8.54606 8.40505ZM11.9657 4.98698H5.12799C4.95799 4.98698 4.79495 5.05451 4.67474 5.17472C4.55453 5.29493 4.487 5.45797 4.487 5.62797C4.487 5.79797 4.55453 5.961 4.67474 6.08121C4.79495 6.20142 4.95799 6.26895 5.12799 6.26895H11.9657C12.1357 6.26895 12.2988 6.20142 12.419 6.08121C12.5392 5.961 12.6067 5.79797 12.6067 5.62797C12.6067 5.45797 12.5392 5.29493 12.419 5.17472C12.2988 5.05451 12.1357 4.98698 11.9657 4.98698Z" fill="#91959B"/>
</svg>
